PathFileType	4	(X/Y/Z)	C:/Users/opensim2020/Desktop/walking_exp_matlab/subject06_walking19_straight_01.trc	
DataRate	CameraRate	NumFrames	NumMarkers	Units	OrigDataRate	OrigDataStartFrame	OrigNumFrames	
100.00	100.00	4	49	mm	100.00	1156	472	
Frame#	Time	LFHD			RFHD			LBHD			RBHD			C7			T10			CLAV			STRN			RBAK			LSHO			LUPA			LELB			LFRM			LWRA			LWRB			LFIN			RSHO			RUPA			RELB			RFRM			RWRA			RWRB			RFIN			LASI			RASI			LPSI			RPSI			LTHI			LKNE			LTIB			LANK			LHEE			LTOE			RTHI			RKNE			RTIB			RANK			RHEE			RTOE			*39			*40			*41			*42			*43			*44			*45			*46			*47			*48			
		X1	Y1	Z1	X2	Y2	Z2	X3	Y3	Z3	X4	Y4	Z4	X5	Y5	Z5	X6	Y6	Z6	X7	Y7	Z7	X8	Y8	Z8	X9	Y9	Z9	X10	Y10	Z10	X11	Y11	Z11	X12	Y12	Z12	X13	Y13	Z13	X14	Y14	Z14	X15	Y15	Z15	X16	Y16	Z16	X17	Y17	Z17	X18	Y18	Z18	X19	Y19	Z19	X20	Y20	Z20	X21	Y21	Z21	X22	Y22	Z22	X23	Y23	Z23	X24	Y24	Z24	X25	Y25	Z25	X26	Y26	Z26	X27	Y27	Z27	X28	Y28	Z28	X29	Y29	Z29	X30	Y30	Z30	X31	Y31	Z31	X32	Y32	Z32	X33	Y33	Z33	X34	Y34	Z34	X35	Y35	Z35	X36	Y36	Z36	X37	Y37	Z37	X38	Y38	Z38	X39	Y39	Z39	X40	Y40	Z40	X41	Y41	Z41	X42	Y42	Z42	X43	Y43	Z43	X44	Y44	Z44	X45	Y45	Z45	X46	Y46	Z46	X47	Y47	Z47	X48	Y48	Z48	X49	Y49	Z49	

296	2.950	1362.92358	341.69724	1666.73352	1494.31897	345.27121	1656.52271	1366.13965	212.72783	1603.07629	1496.01501	217.18988	1598.30164	1423.44946	221.07544	1450.99658	1423.71790	186.56601	1124.63000	1422.30969	331.00528	1375.10083	1418.67590	371.11331	1199.40674	1506.94971	150.76672	1284.44519	1261.05115	272.95108	1405.45886	1189.81421	250.64937	1204.86523	1180.37061	235.15707	1094.01294	1155.61194	246.09074	944.13312	1192.49878	299.98969	824.53333	1157.40979	237.28886	824.75439	1154.95349	271.70184	739.88458	1582.43103	292.60040	1409.37012	1675.34265	263.43481	1212.15576	1684.97253	272.64719	1089.63342	1700.40112	289.72510	970.25543	1662.44446	345.01935	830.69604	1708.57300	296.97678	832.45392	1706.75098	334.01654	756.32690	1325.29590	375.29950	965.30823	1543.62231	349.41107	964.13599	1335.34778	215.89761	995.38770	1502.00159	201.47401	993.56415	1256.75879	328.11313	652.11456	1280.25134	341.90540	488.94537	1295.04871	346.89114	233.92932	1343.53320	376.80804	66.00443	1392.03687	339.75089	52.69678	1344.46252	524.95319	41.73688	1597.96082	259.30948	631.05316	1586.89539	249.81039	503.49017	1586.73071	75.16357	299.15530	1544.43286	-41.04104	151.18797	1501.20850	-86.40059	154.48793	1525.17700	59.88927	36.07717	1424.42822	240.13608	1698.59082																											 
297	2.960	1360.90747	348.15335	1667.43091	1492.27649	351.51120	1657.12646	1363.86401	219.27225	1603.53943	1493.62415	223.56813	1598.72900	1421.01514	227.83331	1451.44897	1420.98523	193.85588	1124.92688	1420.23267	337.89902	1375.75171	1416.81445	378.24677	1200.01807	1503.93079	157.38313	1284.52209	1258.82043	280.10864	1406.25464	1187.14148	258.14914	1205.82202	1177.72852	242.79646	1094.88733	1153.01990	254.68674	945.04639	1190.30652	308.94037	825.71899	1154.98279	246.56326	825.47314	1152.48499	281.47287	740.95557	1580.24475	298.73196	1409.95667	1673.15735	269.52890	1212.75562	1682.80676	278.74930	1090.28003	1698.51196	296.05383	970.93848	1660.57397	351.29095	831.38672	1707.02637	303.34311	833.22095	1704.76379	340.39032	756.91022	1323.98157	382.51846	965.19116	1541.90454	355.52835	964.72534	1333.25769	223.03371	996.09705	1499.71265	207.79585	994.10394	1255.29858	333.21542	652.24524	1279.01526	344.99213	488.71982	1294.23315	347.92865	233.86090	1343.53394	376.85574	65.91981	1391.74194	340.00760	52.35328	1345.06238	525.23035	41.30061	1598.17041	267.50827	631.44397	1587.99463	260.52106	503.68488	1586.60059	84.31290	301.85895	1544.48926	-34.41759	156.19160	1500.89722	-79.24586	161.13058	1525.00391	61.06109	36.65681	1422.26611	246.39822	1699.10388																											 
298	2.970	1358.93945	354.53577	1667.94067	1490.31970	357.56723	1657.60559	1361.54810	225.78966	1603.78442	1491.22864	229.82658	1598.93091	1418.54810	234.58939	1451.77295	1418.38037	200.79213	1125.09961	1417.93042	344.84647	1375.99707	1415.04089	385.25681	1200.35059	1500.80994	163.88194	1284.42920	1256.60803	287.42081	1406.68567	1184.40833	265.78793	1206.43201	1174.91296	250.85599	1095.41528	1150.40894	263.42139	945.59253	1188.02673	318.17548	826.64709	1152.62915	255.83069	825.91144	1150.47705	291.54913	741.56232	1578.08789	304.75775	1410.22620	1670.96643	275.24301	1213.05225	1680.89514	284.98456	1090.62708	1696.54199	302.06036	971.37061	1658.84607	357.62006	831.84497	1705.18689	309.77582	833.57605	1702.99915	346.84930	757.32172	1322.63464	389.46133	964.96021	1540.39258	361.54633	965.15985	1331.29053	229.97214	996.48346	1497.69617	213.76538	994.38922	1253.90259	338.20285	652.30341	1277.72205	347.92798	488.60815	1293.43225	349.03857	233.76311	1343.58179	377.05698	65.84048	1391.58740	340.03442	52.31596	1345.48120	525.55011	40.92801	1598.28857	275.79697	631.61841	1588.89807	271.17062	503.72784	1586.55017	93.80704	304.28900	1544.44629	-27.64942	161.18286	1500.61670	-71.97048	167.71632	1524.78052	62.92772	38.01467	1420.03784	252.56824	1699.35632																											 
299	2.980	1356.96765	360.88116	1668.34265	1488.20239	363.36929	1657.95007	1359.22083	232.27284	1603.77173	1488.98645	235.92049	1598.88684	1416.07092	241.39590	1451.98779	1415.92993	207.62677	1125.05432	1415.95508	351.50806	1376.18225	1413.30835	392.06030	1200.45459	1497.66760	170.29991	1284.27356	1254.37939	294.83463	1406.88416	1181.89807	273.73517	1206.60559	1172.23669	259.32071	1095.56921	1147.69446	272.46985	945.83057	1185.71643	327.46643	827.25208	1150.18372	265.43018	826.00385	1147.82666	301.62003	742.04163	1575.99170	310.68167	1410.26953	1668.67468	280.59232	1213.11365	1678.84851	290.48172	1090.73743	1694.76099	308.22348	971.53119	1657.18555	363.93384	832.19580	1703.43689	316.06149	833.74243	1701.38940	353.33414	757.69092	1321.25098	396.45078	964.75128	1538.96387	367.51736	965.24756	1329.51355	236.62943	996.69366	1495.87537	220.02002	994.29816	1252.67163	342.99432	652.40381	1276.36511	350.78903	488.61948	1292.72205	350.24210	233.61688	1343.58362	377.25748	65.76302	1391.53430	340.22372	52.19717	1345.69287	525.98218	40.63531	1598.34778	284.34125	631.59509	1589.73853	282.14133	503.41391	1586.58752	103.61198	306.41760	1544.14844	-20.67383	165.98897	1500.44067	-64.62212	173.97845	1524.78369	66.21239	40.30054	1417.78125	258.63483	1699.40491																											 
